<svg width="64" height="64" viewBox="0 0 64 64" fill="none" xmlns="http://www.w3.org/2000/svg">
<g clip-path="url(#clip0_7_2)">
<path fill-rule="evenodd" clip-rule="evenodd" d="M32 4.12C15.8533 4.12 2.78133 17.1253 2.78133 33.1413C2.78133 44.9013 9.82933 55.0213 19.9733 59.5733C21.0347 60.0507 22.072 59.8613 22.8827 59.2533C23.331 58.9042 23.6924 58.456 23.9385 57.9439C24.1846 57.4317 24.3088 56.8695 24.3013 56.3013V54.7813L20.6827 54.2907C20.6559 54.2871 20.6292 54.2826 20.6027 54.2773C18.608 53.888 17.2613 53.1867 16.2747 52.176C15.4453 51.3253 14.9387 50.3067 14.5093 49.4427L14.36 49.1413C13.9632 48.3137 13.5299 47.504 13.0613 46.7147C12.7013 46.144 12.4213 45.8507 12.144 45.6667C11.44 45.2 10.7627 44.408 10.7627 43.4187C10.7603 43.1339 10.8212 42.8522 10.9411 42.5939C11.0611 42.3356 11.2369 42.1073 11.456 41.9253C11.8695 41.598 12.3848 41.4262 12.912 41.44C13.504 41.44 14.0613 41.6213 14.5253 41.8293C15 42.0427 15.472 42.3253 15.912 42.6187C16.984 43.3333 18.04 44.1787 18.9333 45.2213C19.864 46.304 20.5227 46.992 21.5147 47.1333C22.3307 47.2507 23.1627 47.2533 23.8107 47.224C23.9007 46.711 24.0492 46.2099 24.2533 45.7307C23.4619 45.546 22.6812 45.3181 21.9147 45.048C20.1707 44.4293 18.2267 43.4667 16.92 42.008C15.4853 40.4027 14.5973 38.9707 14.1013 37.296C13.6187 35.664 13.5387 33.896 13.5387 31.72C13.5387 28.3867 14.9813 25.5787 16.064 24.088C15.648 22.7829 15.3491 21.4434 15.1707 20.0853C15.0525 19.2289 15.0534 18.3602 15.1733 17.504C15.3067 16.7227 15.64 15.7627 16.5173 15.184C17.3627 14.6213 18.3547 14.6453 19.128 14.7893C19.9307 14.9413 20.7653 15.2747 21.5333 15.656C22.784 16.2747 24.0267 17.1013 24.9573 17.8027C26.5627 17.3307 29.4027 16.7227 31.9707 16.6667H32.0293C34.6 16.7227 37.312 17.3307 38.8773 17.8C39.8107 17.1013 41.0507 16.272 42.2987 15.656C43.0667 15.2747 43.8987 14.9413 44.704 14.7893C45.4773 14.6453 46.4693 14.6213 47.3173 15.1813C48.192 15.7627 48.528 16.7227 48.6587 17.504C48.7947 18.3173 48.7627 19.2267 48.6587 20.0853C48.481 21.4433 48.183 22.7828 47.768 24.088C48.8507 25.5813 50.2933 28.3893 50.2933 31.72C50.2933 33.896 50.2133 35.664 49.7333 37.2933C49.2347 38.9733 48.3467 40.4027 46.912 42.008C45.6053 43.4667 43.6613 44.4293 41.9173 45.048C40.9916 45.3734 40.0456 45.6379 39.0853 45.84C39.4133 46.832 39.5307 47.6347 39.5307 48.096V56.336C39.5307 57.5893 40.1147 58.6587 40.944 59.2827C41.7493 59.8933 42.784 60.0827 43.8453 59.6187C54.0853 55.1067 61.216 44.96 61.216 33.1387C61.216 17.1253 48.1493 4.12 32 4.12ZM25.2693 49.8933C24.576 49.992 25.2667 49.8933 25.2667 49.8933H25.2587L25.2373 49.8987L25.16 49.9093C24.7639 49.9559 24.3663 49.9888 23.968 50.008C23.216 50.0427 22.184 50.0453 21.1253 49.8933C19.016 49.5947 17.7333 48.1013 16.904 47.1307L16.824 47.04C16.5528 46.7255 16.2616 46.4288 15.952 46.152C16.2267 46.6587 16.512 47.224 16.8187 47.832L16.8453 47.8853L16.9813 48.1627C17.448 49.0907 17.7547 49.7093 18.264 50.2267C18.76 50.7333 19.5333 51.224 21.096 51.5333L25.88 52.1813C26.2141 52.2266 26.5205 52.3915 26.7422 52.6456C26.9639 52.8996 27.0858 53.2255 27.0853 53.5627V56.3013C27.0853 58.4347 26.0853 60.336 24.552 61.488C23.747 62.1031 22.7893 62.4868 21.7822 62.5977C20.7752 62.7086 19.7569 62.5425 18.8373 62.1173C7.73867 57.1387 0 46.0533 0 33.1413C0 15.5627 14.3387 1.33334 32 1.33334C49.6613 1.33334 64 15.5627 64 33.1413C64 46.12 56.1627 57.2347 44.968 62.1707C44.0476 62.5878 43.0312 62.7468 42.0274 62.6308C41.0236 62.5148 40.0703 62.1281 39.2693 61.512C38.4774 60.9023 37.8375 60.1174 37.3998 59.2189C36.9621 58.3204 36.7386 57.3327 36.7467 56.3333V48.0933C36.7467 47.9067 36.616 46.8293 35.888 45.3813C35.7875 45.1806 35.7369 44.9585 35.7404 44.734C35.7439 44.5095 35.8015 44.2892 35.9083 44.0916C36.015 43.8941 36.1678 43.7252 36.3536 43.5993C36.5395 43.4733 36.753 43.394 36.976 43.368C37.8907 43.2667 39.432 42.9707 40.9867 42.4187C42.5707 41.8587 43.992 41.0907 44.8373 40.1467C46.0933 38.744 46.72 37.6667 47.064 36.5013C47.4213 35.2933 47.512 33.888 47.512 31.72C47.512 28.6773 45.912 26.12 45.176 25.296C45.0089 25.1098 44.895 24.882 44.8462 24.6367C44.7974 24.3913 44.8156 24.1373 44.8987 23.9013C45.272 22.8507 45.7253 21.216 45.8987 19.7573C45.984 19.024 45.9893 18.4107 45.9147 17.968C45.8979 17.8062 45.849 17.6493 45.7707 17.5067C45.5871 17.4749 45.3988 17.4831 45.2187 17.5307C44.7653 17.616 44.1867 17.8293 43.5307 18.1547C42.224 18.8 40.864 19.7547 40.0213 20.4373C39.8355 20.5881 39.6138 20.6882 39.3778 20.7279C39.1419 20.7677 38.8996 20.7456 38.6747 20.664C36.5156 19.9577 34.2697 19.5513 32 19.456C29.3147 19.52 26.216 20.2827 25.1573 20.664C24.9324 20.7456 24.6901 20.7677 24.4542 20.7279C24.2182 20.6882 23.9965 20.5881 23.8107 20.4373C22.7209 19.56 21.5451 18.7952 20.3013 18.1547C19.7672 17.8742 19.1989 17.6644 18.6107 17.5307C18.4314 17.4835 18.2441 17.4753 18.0613 17.5067C17.983 17.6493 17.934 17.8061 17.9173 17.968C17.8427 18.4107 17.848 19.024 17.9333 19.7573C18.1067 21.216 18.5627 22.8507 18.9333 23.9013C19.1013 24.3813 18.9973 24.9147 18.656 25.296C17.92 26.12 16.32 28.6773 16.32 31.72C16.32 33.8853 16.4107 35.2933 16.768 36.5013C17.1147 37.6667 17.7387 38.7413 18.992 40.1467C19.84 41.0907 21.2587 41.8587 22.8453 42.4187C24.1434 42.878 25.4871 43.1963 26.8533 43.368C27.1344 43.3982 27.3996 43.5132 27.6138 43.6978C27.8279 43.8824 27.9807 44.1278 28.0519 44.4014C28.1231 44.675 28.1093 44.9637 28.0124 45.2293C27.9155 45.4949 27.74 45.7246 27.5093 45.888C27.0693 46.2027 26.7787 46.768 26.616 47.4213C26.532 47.7577 26.482 48.1016 26.4667 48.448V48.4987C26.4701 48.8368 26.3505 49.1646 26.1303 49.4212C25.91 49.6777 25.6041 49.8455 25.2693 49.8933V49.8933Z" fill="#4ECB71"/>
</g>
<defs>
<clipPath id="clip0_7_2">
<rect width="64" height="64" fill="white"/>
</clipPath>
</defs>
</svg>
